<?xml version="1.0" encoding="UTF-8"?>
<svg width="100" height="100" viewBox="0 0 100 100" xmlns="http://www.w3.org/2000/svg">
    <!-- Aztec Sun Symbol -->
    <g fill="none" stroke="#ff0000" stroke-width="1">
        <circle cx="50" cy="50" r="40"/>
        <path d="M50 10 L50 90 M10 50 L90 50"/>
        <path d="M22 22 L78 78 M22 78 L78 22"/>
        <circle cx="50" cy="50" r="20"/>
        <path d="M50 30 L50 70 M30 50 L70 50"/>
    </g>
    
    <!-- Corner Patterns -->
    <g fill="none" stroke="#ff6b00" stroke-width="1">
        <path d="M5 5 L15 5 L15 15 L5 15 Z"/>
        <path d="M85 5 L95 5 L95 15 L85 15 Z"/>
        <path d="M5 85 L15 85 L15 95 L5 95 Z"/>
        <path d="M85 85 L95 85 L95 95 L85 95 Z"/>
    </g>
</svg> 